<?xml version="1.0" encoding="UTF-8"?>
<svg xmlns="http://www.w3.org/2000/svg" version="1.1" viewBox="0 0 647.1 698">
  <defs>
    <style>
      .cls-1 {
        fill: none;
        stroke: #3cb9fc;
        stroke-linecap: round;
        stroke-linejoin: round;
        stroke-width: 25px;
      }
    </style>
  </defs>
  <!-- Generator: Adobe Illustrator 28.7.1, SVG Export Plug-In . SVG Version: 1.2.0 Build 142)  -->
  <g>
    <g id="Capa_2">
      <g>
        <path class="cls-1" d="M258.1,641.7c.4,14.6.8,29.2,1.1,43.8,102.4,0,204.7,0,307.1,0-5.9-23.6-12.6-60.1-10.2-104.2,5.8-110,61.2-141.7,75.6-235.9,2.4-15.5,18.6-134.6-60.3-230.8C490.5,16,367.9,12.7,350.8,12.5c-116.9-1.2-225.7,68.4-256.3,142-18.7,44.9-21.4,91.9-21.4,91.9,0,39.7,9,43.9,1,66.4-11,31.2-50.1,78.1-53.1,81.7-2.9,3.4-9.9,11.7-8.2,20.4,1.1,5.5,5.8,9.5,15.3,17.4,12,10,16.1,10.4,20.4,17.4,1.3,2,3.2,5.6,5.1,16.1,3.6,20.1-.3,24.2,2,35,4.4,20.2,21.4,18.8,26.6,39.8,1,3.9-.2,1.7-1.4,30.3-1.1,25.2.2,34.5,1.4,44.3.6,4.8,1.6,11.1,5.1,18.1,0,0,5.6,11.1,17.4,19.6,16.7,12.1,69.2,23.8,121.5,1.1,43.5-18.9,66.9-52.9,76.6-69.4"/>
        <line class="cls-1" x1="117.2" y1="496.1" x2="55" y2="496.1"/>
        <path class="cls-1" d="M298.7,158.3c-12-12-24.1-24.1-36.1-36.1-13.4,13.4-26.7,26.7-40.1,40.1,12,12,24.1,24.1,36.1,36.1-5.2,6.4-11.7,15.9-16.9,28.5-4.5,11-6.6,21-7.7,28.6h-51.1v56.7h51.1c1.8,8.9,4.9,19.8,10.2,31.7,4.6,10.2,9.6,18.7,14.3,25.4-12,12-24.1,24.1-36.1,36.1,13.4,13.4,26.7,26.7,40.1,40.1l36.1-36.1c6.3,4.9,14.7,10.6,25.2,15.6,8.9,4.2,17.1,6.9,24,8.7"/>
        <path class="cls-1" d="M428.6,134.1c.6-2.7,3.9-19-6.6-33.2-7.8-10.5-22.7-19.2-37.8-15.3-14.7,3.8-21.5,17.3-22.3,19-2,4.1-2.8,7.9-3.2,10.7v335.5c.3,7.8.6,15.5.9,23.3.5,2.3,1.4,5.1,3.7,7.3,12.1,12.3,47.1-6.4,49.5-7.7,20-10.9,32-27.2,38.8-39.3"/>
        <path class="cls-1" d="M441.4,209.2c2.8-.1,24.5-1.5,36.8-19.4,11.7-17.1,10.4-43-5.6-57.2-14.5-12.9-33.9-9.7-36.8-9.2"/>
        <path class="cls-1" d="M483.8,263.8c2.2,0,24.2-1.2,36.3-19.9,9.3-14.5,9.9-35.3-2-49.5-11.7-14-29.4-14.3-32.2-14.3"/>
        <path class="cls-1" d="M451.6,351.1c7.6-16.1,5.8-35.1-4.6-49.5-10.4-14.4-27.8-22-45.4-19.9"/>
        <path class="cls-1" d="M351.5,201.8c-36.5,11.1-61.7,44.7-62.3,82.7-.6,38.2,23.9,72.7,60.3,84.8"/>
        <path class="cls-1" d="M351.5,131.8c-7.3,1.5-16.7,4.1-27.1,9.2-11.4,5.6-19.9,12.1-25.7,17.3"/>
        <path class="cls-1" d="M425.5,389.7c-2.1,2.7-6.1,6.9-12.3,10.2-7.6,4.1-14.8,4.6-18.4,4.6h-30.7"/>
        <path class="cls-1" d="M412.3,242.6c-2.6-3.2-7.6-8.3-15.3-10.7-3.8-1.2-6.9-1.4-11.2-1.5-4.7-.2-11.4,0-19.4,1.5"/>
        <line class="cls-1" x1="405.1" y1="341.7" x2="366.3" y2="341.7"/>
        <path class="cls-1" d="M406.1,174.8c-.9,1.4-2.3,3.1-4.2,4.7-4.3,3.5-8.9,4.3-11.1,4.5-8.1,0-16.1.1-24.2.2"/>
        <path class="cls-1" d="M485.9,366.9c4,5,12.2,16.6,13.7,33.4.5,5.8,2,21.7-7.8,35.1-4.5,6.1-9.8,9.7-18.3,14.2-11.7,6.2-29.5,14.1-53.6,19.9"/>
        <path class="cls-1" d="M463.8,330.8c11.8,0,23.6-.2,35.4-.3,4.7.2,13.8,0,22.5-5.5,17.5-11.2,17.6-34.1,17.7-39.1.3-20.3-11.3-34.3-14.6-38.1"/>
        <path class="cls-1" d="M525.5,333.2c1.4,3.2,7.6,18.3,1.3,35.9-5.8,16.1-18.4,23.8-21.7,25.7"/>
      </g>
    </g>
  </g>
</svg>