<?xml version="1.0" encoding="UTF-8"?>
<svg xmlns="http://www.w3.org/2000/svg" version="1.1" viewBox="0 0 955.3 421.2">
  <!-- Generator: Adobe Illustrator 28.7.1, SVG Export Plug-In . SVG Version: 1.2.0 Build 142)  -->
  <g>
    <g id="Capa_3">
      <g>
        <path d="M258,384.5l-5.7-19.4h-29.2l-5.8,19.4h-16.9l27.4-84.7h21.2l26.9,84.7h-17.9ZM237.8,314.6h-.1l-10.9,37h22l-10.9-37Z"/>
        <path d="M332.2,366.1c0,6.3-2.2,11.3-6.5,14.9-4.3,3.6-10.8,5.3-19.3,5.3s-7.3-.4-10.6-1.1c-3.3-.8-6.6-1.9-9.8-3.3l.8-13c2.9,1.6,5.8,2.9,8.8,3.8,3,.9,6.1,1.4,9.3,1.4s7-.7,8.4-2.2c1.5-1.4,2.2-3,2.2-4.8s-.8-3.8-2.3-5c-1.5-1.2-4.2-2.4-8-3.7l-1.5-.5c-2.6-.8-5-1.8-7.2-2.9-2.2-1.1-4-2.5-5.6-4.1-1.6-1.6-2.8-3.5-3.6-5.7-.8-2.2-1.3-4.7-1.3-7.6,0-6.1,2.2-10.7,6.6-13.8,4.4-3.1,10.5-4.7,18.2-4.7s6.9.4,10.1,1.2c3.2.8,5.8,1.8,7.9,2.9l-.8,12.8c-3-1.6-5.9-2.8-8.9-3.6-3-.8-5.4-1.1-7.4-1.1-3.2,0-5.5.5-6.9,1.6-1.4,1.1-2.1,2.4-2.1,4.1s.7,3.4,2.2,4.5c1.5,1.1,3.9,2.3,7.2,3.5l4.3,1.5c2.1.8,4.1,1.7,6,2.7,1.9,1,3.6,2.3,5,3.8,1.4,1.5,2.6,3.3,3.4,5.5.8,2.1,1.2,4.6,1.2,7.5Z"/>
        <path d="M400.4,352.5c0,5.2-.5,9.8-1.6,14-1.1,4.1-2.7,7.7-5,10.6s-5.3,5.2-9,6.8-8.2,2.4-13.5,2.4-9.8-.8-13.5-2.3c-3.6-1.5-6.6-3.7-8.9-6.6-2.3-2.9-3.9-6.4-4.9-10.5-1-4.1-1.5-8.7-1.5-13.9s.5-9.8,1.6-14c1.1-4.1,2.7-7.7,5-10.6,2.3-2.9,5.3-5.2,9-6.8,3.7-1.6,8.3-2.4,13.6-2.4s9.8.8,13.5,2.3c3.6,1.5,6.6,3.7,8.8,6.5,2.2,2.8,3.9,6.3,4.8,10.5,1,4.1,1.5,8.8,1.5,14ZM383.7,347.7c0-4.8-1-8.7-2.9-11.5-1.9-2.8-5-4.3-9-4.3s-7.1,1.5-9.2,4.4c-2.1,2.9-3.1,6.8-3.1,11.6v9.9c0,4.8,1,8.7,2.9,11.5,1.9,2.8,5,4.3,9,4.3s7.1-1.5,9.2-4.4c2.1-2.9,3.1-6.8,3.1-11.6v-9.9Z"/>
        <path d="M455.8,382.4c-2.5,1.3-5.3,2.2-8.3,2.9-3,.7-6.4,1-10.4,1s-9.6-.8-13-2.4-6.2-3.9-8.2-6.8-3.5-6.5-4.3-10.6c-.8-4.1-1.2-8.8-1.2-13.8s.5-9.7,1.5-13.8c1-4.1,2.6-7.6,4.8-10.5,2.2-2.9,5.1-5.2,8.8-6.7,3.6-1.6,8.1-2.3,13.5-2.3s4.1.1,5.9.4c1.8.3,3.4.7,4.8,1.1,1.4.4,2.6.8,3.5,1.2.9.4,1.5.7,1.8.8l-.8,13.2c-.3-.2-.9-.4-1.8-.8-.8-.4-1.9-.8-3.1-1.1-1.2-.4-2.6-.7-4-1-1.4-.3-3-.4-4.6-.4-4.1,0-7.3,1.4-9.7,4.2-2.4,2.8-3.6,7-3.6,12.6v6.9c0,5.8,1.3,10.1,3.9,12.8,2.6,2.7,5.8,4,9.4,4s5.4-.3,7.7-1c2.4-.7,4.5-1.5,6.5-2.5l.9,13Z"/>
        <path d="M486.9,303.6c0,2.9-1,5.3-3,7.3s-4.4,3-7.2,3-5.3-1-7.3-3c-2-2-3-4.4-3-7.3s1-5.2,3-7.2,4.4-3,7.3-3,5.2,1,7.2,3c2,2,3,4.4,3,7.2ZM468.5,384.5v-63.5h16.5v63.5h-16.5Z"/>
        <path d="M538,384.5l-.9-8.3h-.1c-.4.8-1.1,1.8-2.1,3-1,1.1-2.3,2.2-3.9,3.3-1.6,1.1-3.5,1.9-5.8,2.7-2.2.7-4.8,1.1-7.7,1.1-6.5,0-11.4-1.8-14.5-5.3-3.2-3.5-4.8-8-4.8-13.5s.7-6.5,2.1-9.1c1.4-2.6,3.3-4.8,5.8-6.6,2.5-1.8,5.5-3.1,9-4,3.5-.9,7.3-1.3,11.6-1.3s3.9,0,5.6.2c1.7.1,2.9.2,3.6.3v-5.5c0-3.4-1.1-5.8-3.3-7.1-2.2-1.4-5.2-2-8.9-2s-6.9.4-10.2,1.3c-3.2.8-6.4,2-9.5,3.4l-.8-13c3.3-1.5,6.9-2.7,10.8-3.6,3.9-.8,8-1.3,12.4-1.3s7,.3,10.2.9c3.2.6,5.9,1.7,8.3,3.4,2.3,1.7,4.1,3.9,5.5,6.7,1.3,2.8,2,6.5,2,11.1v43.2h-14.4ZM535.8,357c-.4,0-1.2-.2-2.4-.3-1.2,0-2.6-.1-4.3-.1s-3.3.1-5,.4c-1.7.3-3.2.8-4.6,1.6-1.4.8-2.5,1.8-3.4,3-.9,1.3-1.3,2.8-1.3,4.7s.8,4.6,2.3,5.9c1.6,1.3,3.6,2,6,2s3.2-.4,4.8-1.1c1.6-.7,2.9-1.7,4.1-3,1.1-1.3,2.1-2.8,2.8-4.6.7-1.8,1.1-3.7,1.1-5.7v-2.9Z"/>
        <path d="M609.5,384.5l-.8-7.7h-.1c-1.7,2.5-4,4.7-6.9,6.6-2.9,1.9-6.8,2.9-11.7,2.9s-8.1-.8-11.2-2.4-5.5-3.9-7.4-6.9c-1.9-3-3.2-6.5-4-10.5-.8-4.1-1.2-8.6-1.2-13.6s.4-9.2,1.3-13.3c.9-4.1,2.3-7.7,4.3-10.7,1.9-3,4.5-5.4,7.6-7.1,3.1-1.7,6.9-2.6,11.4-2.6s4.7.3,6.6.8c1.9.6,3.5,1.2,4.8,2,1.4.8,2.5,1.7,3.4,2.7.9,1,1.7,1.9,2.2,2.7h.1v-32.5h16.4v89.5h-14.9ZM608,348c0-2.3-.3-4.4-1-6.3-.7-1.9-1.6-3.5-2.7-4.8-1.1-1.3-2.4-2.3-3.9-3.1-1.5-.8-3-1.1-4.6-1.1-4.5,0-7.7,1.6-9.7,4.8-2,3.2-3,7-3,11.6v8c0,5.1,1.1,9,3.3,11.8,2.2,2.8,5.2,4.2,8.9,4.2s3.6-.4,5.1-1.2c1.5-.8,2.9-1.9,4-3.2,1.1-1.4,2-2.9,2.7-4.7.6-1.8,1-3.7,1-5.7v-10.2Z"/>
        <path d="M696.4,352.5c0,5.2-.5,9.8-1.6,14-1.1,4.1-2.7,7.7-5,10.6s-5.3,5.2-9,6.8-8.2,2.4-13.5,2.4-9.8-.8-13.5-2.3c-3.6-1.5-6.6-3.7-8.9-6.6-2.3-2.9-3.9-6.4-4.9-10.5-1-4.1-1.5-8.7-1.5-13.9s.5-9.8,1.6-14c1.1-4.1,2.7-7.7,5-10.6,2.3-2.9,5.3-5.2,9-6.8,3.7-1.6,8.3-2.4,13.6-2.4s9.8.8,13.5,2.3c3.6,1.5,6.6,3.7,8.8,6.5,2.2,2.8,3.9,6.3,4.8,10.5,1,4.1,1.5,8.8,1.5,14ZM679.6,347.7c0-4.8-1-8.7-2.9-11.5-1.9-2.8-5-4.3-9-4.3s-7.1,1.5-9.2,4.4c-2.1,2.9-3.1,6.8-3.1,11.6v9.9c0,4.8,1,8.7,2.9,11.5,1.9,2.8,5,4.3,9,4.3s7.1-1.5,9.2-4.4c2.1-2.9,3.1-6.8,3.1-11.6v-9.9Z"/>
        <path d="M753.2,366.1c0,6.3-2.2,11.3-6.5,14.9-4.3,3.6-10.8,5.3-19.3,5.3s-7.3-.4-10.6-1.1c-3.3-.8-6.6-1.9-9.8-3.3l.8-13c2.9,1.6,5.8,2.9,8.8,3.8,3,.9,6.1,1.4,9.3,1.4s7-.7,8.4-2.2c1.5-1.4,2.2-3,2.2-4.8s-.8-3.8-2.3-5c-1.5-1.2-4.2-2.4-8-3.7l-1.5-.5c-2.6-.8-5-1.8-7.2-2.9-2.2-1.1-4-2.5-5.6-4.1-1.6-1.6-2.8-3.5-3.6-5.7-.8-2.2-1.3-4.7-1.3-7.6,0-6.1,2.2-10.7,6.6-13.8,4.4-3.1,10.5-4.7,18.2-4.7s6.9.4,10.1,1.2c3.2.8,5.8,1.8,7.9,2.9l-.8,12.8c-3-1.6-5.9-2.8-8.9-3.6-3-.8-5.4-1.1-7.4-1.1-3.2,0-5.5.5-6.9,1.6-1.4,1.1-2.1,2.4-2.1,4.1s.7,3.4,2.2,4.5c1.5,1.1,3.9,2.3,7.2,3.5l4.3,1.5c2.1.8,4.1,1.7,6,2.7,1.9,1,3.6,2.3,5,3.8,1.4,1.5,2.6,3.3,3.4,5.5.8,2.1,1.2,4.6,1.2,7.5Z"/>
      </g>
    </g>
    <g id="Capa_1">
      <g>
        <path d="M489.9,0c19.5,0,37,2.5,53.4,10.2,16.2,7.7,28.4,19.1,31.3,37.7,3.1,19.5-3,35.8-18.4,48.3-12,9.8-26.1,15.1-40.8,19.4-11.8,3.4-23.9,5.7-36.1,7.4-2.9.4-3.3.9-1.9,3.6,9.6,17.7,21.6,33.7,34.4,49.2,2.8,3.4,5.7,6.9,8.5,10.3,2.4,2.9,2.6,2.9,4.4-.6,7.6-15.1,15.3-30,25-43.9,9-12.8,19-24.6,33.7-31.1,19.6-8.7,38.8-7,57.4,3.2,2.1,1.1,2.5,2.4,1.6,4.6-10.2,25.8-20.3,51.7-30.4,77.5-.2.4-.3.8-.5,1.2-.5,1.2-1,2-2.6,1.6-1.6-.4-1.9-1.2-1.8-2.8.8-7.2,1.1-14.4.8-21.6-.2-5.9-1.2-11.8-3.1-17.5-5.6-17.1-20.7-17.6-31.9-10.9-5.2,3.1-8.9,7.8-12.3,12.7-9.4,13.7-16.1,28.8-23.4,43.7-.5,1.1-.4,2,.4,2.9,15.3,15.5,31.2,30,52.5,37,8,2.6,16.2,3.6,24.4,2.1,12.2-2.3,19.8-10.3,25.1-21,2.2-4.5,3.7-9.2,4.9-14.1.4-1.5.6-3,2.7-2.8,2.1.2,1.8,1.8,1.9,3.1,1.1,18.8-.3,37.4-8.6,54.6-9.8,20.5-26.6,30.2-49,31.1-30.8,1.3-57.2-9.8-80.9-28.6-2.2-1.7-4.4-3.3-6.4-5.2-1.8-1.7-2.8-1.6-4.5.3-11.8,12.9-25.8,22.5-42.5,28-11.2,3.7-22.8,5.5-34.6,6-19.7.8-39.2-.5-58.2-6.4-21-6.6-38.7-17.7-50-37.2-6.1-10.5-9.2-21.9-10.2-33.8-1.3-15.8,0-31.3,6.4-46.1,7.4-17,19.5-29.8,35.1-39.6,16.1-10.1,33.8-16.2,52.2-20.3,4.7-1.1,4.6-1,3.7-6-3-17-4.2-34.1.2-51.1,5.7-22.1,19.5-37.2,40.3-46.1C457.7,2.2,474.3-.1,489.9,0ZM427.3,275.6c5.7,0,11.4-.5,17.1-1.6,17-3.2,30.3-12.5,41.9-24.9,1.6-1.8,1.8-2.8,0-4.6-10.9-11.3-21.3-23-31.1-35.3-19-23.5-35.7-48.5-46.1-77.1-.8-2.3-1.8-2.4-3.7-1.2-8.7,5.5-15.6,12.8-20.7,21.6-14.7,25.4-18.4,52.6-11.5,80.9,6.7,27.3,26.4,42.4,54.1,42.2ZM491.1,18.7c-17.2,0-28.4,9.2-31.8,26-1.4,7.1-1.2,14.3-.7,21.5.9,13.1,3.9,25.7,8.4,38,.9,2.5,2.2,2.9,4.6,2.1,8.2-2.7,16-6.3,23-11.3,16.9-12.1,27.3-27.5,25.7-49.3-1.3-17-12.1-27.1-29.1-27.1Z"/>
        <path d="M864,136.2c11.1,1.2,22.1,2.8,32.8,5.8,12,3.3,23.4,8.1,33.5,15.7,14.8,11.2,22.9,26.2,24.6,44.6,1.2,13,0,25.8-5.4,38-6.4,14.7-17.1,25.4-30.9,33.1-14.5,8.1-30.2,12.2-46.4,14.7-14.7,2.3-29.5,2.7-44.4,2.6-46.9,0-93.7,0-140.6,0-1.6,0-4,1.1-4.5-1.5-.5-2.4,2-2.7,3.5-3.5,7.1-3.9,14.1-7.7,20-13.4,6.1-5.9,9.3-13.1,9.3-21.6,0-68.5,0-137,0-205.5,0-10.6-5-18.6-13.1-24.9-5-3.9-10.6-7-16.2-10-.8-.4-1.7-.9-2.5-1.4-.9-.6-1.2-1.5-.9-2.5.3-1,1.1-1.2,2-1.2.7,0,1.5,0,2.2,0,52.4,0,104.7,0,157.1,0,17.5,0,34.7,1.8,51.3,7.6,7.9,2.7,15.2,6.5,21.5,12.1,11.5,10.1,16.3,23.2,17.1,38.1,1.4,27.1-12,45.9-34,59.7-11.1,6.9-23.2,11-36,13.6ZM781.2,210.4c0,19.2,0,38.4,0,57.6,0,3,.9,4.1,4,4,9.9-.2,19.7,0,29.6-.3,11.1-.3,21.9-2.2,32.3-6.3,12.6-5,22.7-12.8,28.8-25.1,6.9-13.9,8.2-28.6,6.4-43.7-2-17.3-10.6-30.3-26.3-38.4-11.6-6-24.2-8.4-37.1-8.9-11-.4-22-.2-33.1-.2-4.5,0-4.5,0-4.5,4.7,0,18.9,0,37.7,0,56.6ZM781.2,76.9c0,11.8,0,23.5,0,35.3,0,5.1,0,10.2,0,15.3,0,1.6,0,3,2.3,3,13.8,0,27.6.2,40.9-4.1,16.9-5.4,29.3-15.9,35.3-33,4.4-12.4,4.7-25.2,1.8-37.9-2.8-12.2-10.1-21-21.7-26.2-7.6-3.4-15.5-5-23.7-5.3-10.3-.3-20.6,0-30.8-.3-3.3,0-4.2,1.1-4.1,4.2.1,16.3,0,32.6,0,49Z"/>
        <path d="M142,158.4c13.7.7,26.6,2,39.1,6.2,17.6,5.9,30.9,17.3,41.4,32.3,7.2,10.3,12.6,21.6,18.6,32.5,4.7,8.7,9.4,17.3,14,26.1,6.9,13,16.8,22.8,30.3,28.8,1.6.7,3.1,1.5,4.6,2.2,1.2.6,2.3,1.3,1.9,2.9-.4,1.7-1.7,1.3-2.8,1.3-29.9,0-59.8,0-89.7,0-2.4,0-3.3-1.2-4.2-3.1-7.5-16.2-14.9-32.4-22.5-48.5-7-14.9-13.3-30-21.1-44.5-2-3.6-4.3-7-6.9-10.3-7.5-9.5-17.5-14.2-29.3-15.2-4.6-.4-9.3,0-14-.2-2.2,0-3,.9-2.9,3.1,0,26.9,0,53.9.2,80.8,0,6.7,2.8,12.5,7.3,17.5,6,6.5,13.5,10.8,21.3,14.8,1.1.6,2.3,1.2,3.4,1.8,1,.6,1.1,1.5.9,2.5-.2,1.1-1.1,1.1-2,1.2-.7,0-1.5,0-2.2,0-41,0-82.1,0-123.1,0-.3,0-.6,0-1,0-1.2-.2-2.7.5-3.2-1.2-.5-1.9,1-2.5,2.3-3.2,2.2-1.2,4.5-2.4,6.7-3.6,5.2-2.9,10.1-6.2,14.4-10.3,6.1-5.9,9.2-13.1,9.2-21.6,0-12.9,0-25.9,0-38.8,0-54.2-.2-108.4.1-162.6,0-14.2-5.6-24.4-17.2-31.9-4.4-2.8-8.9-5.4-13.5-7.8-1.2-.6-2.6-1.2-2.3-3,.4-2,2.1-1.4,3.4-1.4,54.3,0,108.6-.2,162.9.2,17,.1,33.8,2.3,49.8,8.7,16,6.4,28.2,16.7,32.7,33.9,6.4,24.2,1.2,46-14.6,65.2-13.7,16.6-31.9,26.6-51.6,34.3-12.9,5-26.4,8.3-40.6,11ZM98.6,86.8c0,19.7,0,39.4,0,59.1,0,3.7.5,4.1,4.1,3.5,3.1-.5,6.3-1.1,9.3-1.8,17.9-4.3,33.9-12.3,46.7-25.6,16.1-16.8,23.3-37.1,21.7-60.3-.9-12.1-5.7-22.3-16.1-29.2-8.6-5.7-18.4-8.1-28.6-8.5-11-.4-22,0-33.1-.3-3.3,0-4.1,1.1-4.1,4.3.1,19.6,0,39.2,0,58.8Z"/>
      </g>
    </g>
  </g>
</svg>